<svg width="683" height="683" viewBox="0 0 683 683" fill="none" xmlns="http://www.w3.org/2000/svg">
<g clip-path="url(#clip0_1_2)">
<path d="M352.427 42.7025C181.467 30.8983 39 169.403 39 340.958C39 353.55 39.77 365.354 41.3102 377.158C42.0803 383.454 49.7813 386.601 54.4018 381.881L82.8951 352.762C84.4353 351.188 85.2054 348.827 85.2054 346.466C85.2054 344.893 85.2054 342.531 85.2054 340.958C85.2054 196.158 205.339 79.6895 349.346 89.9198C471.02 98.5764 568.823 199.307 577.293 322.858C587.304 470.018 473.331 592.783 331.634 592.783C236.144 592.783 153.744 536.909 112.929 455.853L206.88 359.846L308.531 463.722C311.612 466.871 316.232 466.871 319.313 463.722L636.795 142.668V187.524C636.795 192.246 639.876 195.393 644.495 195.393H675.299C679.921 195.393 683 192.246 683 187.524V70.2679C683 65.5462 679.921 62.3984 675.299 62.3984H560.556C555.936 62.3984 552.855 65.5462 552.855 70.2679V101.746C552.855 106.468 555.936 109.616 560.556 109.616H604.45L314.693 402.34L213.041 298.463C209.96 295.314 205.339 295.314 202.259 298.463L62.1026 441.688C59.7924 444.049 59.0224 447.198 60.5626 450.345C102.148 561.305 208.42 640 331.634 640C500.283 640 635.82 494.415 623.498 319.711C613.488 172.55 496.434 52.933 352.427 42.7025Z" fill="url(#paint0_linear_1_2)"/>
</g>
<defs>
<linearGradient id="paint0_linear_1_2" x1="331.639" y1="42.0001" x2="331.639" y2="640" gradientUnits="userSpaceOnUse">
<stop stop-color="#FFABEC"/>
<stop offset="0.3125" stop-color="#F5B16A"/>
<stop offset="0.567708" stop-color="#FCD596"/>
<stop offset="1" stop-color="#F8CD8F"/>
</linearGradient>
<clipPath id="clip0_1_2">
<rect width="682.667" height="682.667" fill="white"/>
</clipPath>
</defs>
</svg>
