<svg width="117" height="38" viewBox="0 0 117 38" fill="none" xmlns="http://www.w3.org/2000/svg">
<g clip-path="url(#clip0_2170_1731)">
<path d="M17.8259 3.49566C7.92688 2.81376 -0.322266 10.8148 -0.322266 20.7251C-0.322266 21.4525 -0.277681 22.1344 -0.188501 22.8163C-0.143911 23.18 0.301994 23.3618 0.569534 23.0891L2.21936 21.407C2.30854 21.3161 2.35313 21.1797 2.35313 21.0433C2.35313 20.9524 2.35313 20.816 2.35313 20.7251C2.35313 12.3604 9.30917 5.6323 17.6475 6.22328C24.6927 6.72335 30.3557 12.5423 30.8461 19.6795C31.4258 28.1806 24.8265 35.2724 16.6219 35.2724C11.0928 35.2724 6.32165 32.0447 3.95838 27.3623L9.39836 21.8162L15.2842 27.8169C15.4626 27.9988 15.7301 27.9988 15.9085 27.8169L34.2914 9.27039V11.8616C34.2914 12.1344 34.4698 12.3162 34.7373 12.3162H36.5209C36.7885 12.3162 36.9668 12.1344 36.9668 11.8616V5.08804C36.9668 4.81528 36.7885 4.63344 36.5209 4.63344H29.877C29.6095 4.63344 29.4311 4.81528 29.4311 5.08804V6.90646C29.4311 7.17922 29.6095 7.36106 29.877 7.36106H32.4186L15.641 24.271L9.75508 18.2703C9.57672 18.0884 9.30917 18.0884 9.13081 18.2703L1.01543 26.544C0.881664 26.6804 0.837076 26.8623 0.926256 27.0441C3.33412 33.454 9.48754 38 16.6219 38C26.3871 38 34.235 29.5899 33.5215 19.4977C32.9419 10.9966 26.1642 4.08665 17.8259 3.49566Z" fill="url(#paint0_linear_2170_1731)"/>
<path d="M48.0803 16.2295C51.3468 16.2295 53.7622 18.8094 53.7622 22.2569C53.7622 25.7045 51.3468 28.2609 48.0803 28.2609C46.9761 28.2609 45.7109 27.8387 44.8137 27.1586V28.0263H42.4443V10.4367H44.8137V17.3553C45.5729 16.722 46.9761 16.2295 48.0803 16.2295ZM47.8502 26.2908C49.8056 26.2908 51.3928 24.6022 51.3928 22.2569C51.3928 19.8882 49.8056 18.223 47.8502 18.223C46.562 18.223 45.4348 18.8094 44.8137 20.0524C44.4917 20.709 44.3076 21.4595 44.3076 22.2569C44.3076 23.0543 44.4917 23.8048 44.8137 24.438C45.4348 25.681 46.562 26.2908 47.8502 26.2908ZM58.7771 16.4406V28.0263H56.4077V16.4406H58.7771ZM58.8921 12.1956C58.8921 12.9461 58.317 13.5325 57.5809 13.5325C56.8678 13.5325 56.2927 12.9461 56.2927 12.1956C56.2927 11.4686 56.8678 10.8823 57.5809 10.8823C58.317 10.8823 58.8921 11.4686 58.8921 12.1956ZM70.049 16.4406V18.5045L64.321 26.0563H70.049V28.0263H61.8826V25.8218L67.5876 18.4107H61.8826V16.4406H70.049ZM84.6334 28.0263H82.08V23.3592H74.0057V21.4595L81.896 10.4367H84.6334V21.2015H86.0137V23.3592H84.6334V28.0263ZM77.2032 21.2015H82.08V14.1422L77.2032 21.2015ZM101.564 16.2295C101.564 17.3787 101.265 18.4576 100.759 19.3957L95.9743 28.0263H93.2599L96.3194 22.4445C96.0894 22.468 95.8593 22.4915 95.6293 22.4915C92.3627 22.4915 89.7173 19.6771 89.7173 16.2295C89.7173 12.782 92.3627 10.2021 95.6293 10.2021C98.8958 10.2021 101.564 12.782 101.564 16.2295ZM92.0867 16.2295C92.0867 18.3403 93.674 20.0524 95.6293 20.0524C97.5846 20.0524 99.1719 18.3403 99.1719 16.2295C99.1719 14.1188 97.5846 12.6412 95.6293 12.6412C93.674 12.6412 92.0867 14.1188 92.0867 16.2295ZM117 16.2295C117 17.3787 116.701 18.4576 116.195 19.3957L111.41 28.0263H108.695L111.755 22.4445C111.525 22.468 111.295 22.4915 111.065 22.4915C107.798 22.4915 105.153 19.6771 105.153 16.2295C105.153 12.782 107.798 10.2021 111.065 10.2021C114.331 10.2021 117 12.782 117 16.2295ZM107.522 16.2295C107.522 18.3403 109.11 20.0524 111.065 20.0524C113.02 20.0524 114.607 18.3403 114.607 16.2295C114.607 14.1188 113.02 12.6412 111.065 12.6412C109.11 12.6412 107.522 14.1188 107.522 16.2295Z" fill="url(#paint1_linear_2170_1731)"/>
</g>
<defs>
<linearGradient id="paint0_linear_2170_1731" x1="16.6222" y1="3.45508" x2="16.6222" y2="38" gradientUnits="userSpaceOnUse">
<stop stop-color="#FFABEC"/>
<stop offset="0.3125" stop-color="#F5B16A"/>
<stop offset="0.567708" stop-color="#FCD596"/>
<stop offset="1" stop-color="#F8CD8F"/>
</linearGradient>
<linearGradient id="paint1_linear_2170_1731" x1="79.7221" y1="10.2021" x2="79.7221" y2="28.2609" gradientUnits="userSpaceOnUse">
<stop stop-color="#FFABEC"/>
<stop offset="0.3125" stop-color="#F5B16A"/>
<stop offset="0.567708" stop-color="#FCD596"/>
<stop offset="1" stop-color="#F8CD8F"/>
</linearGradient>
<clipPath id="clip0_2170_1731">
<rect width="117" height="38" fill="white"/>
</clipPath>
</defs>
</svg>
