<svg width="300" height="100" viewBox="0 0 300 100" fill="none" xmlns="http://www.w3.org/2000/svg">
<rect width="300" height="100" fill="#262F56"/>
<path d="M46.6952 60V50.3854C46.6952 49.2069 46.455 48.3229 45.9745 47.7336C45.503 47.1443 44.7596 46.8497 43.7442 46.8497C43.0099 46.8497 42.3934 46.9675 41.8947 47.2033C41.3961 47.439 40.9927 47.788 40.6844 48.2504C40.3852 48.7128 40.1677 49.2794 40.0317 49.9503C39.9047 50.6212 39.8413 51.3918 39.8413 52.2621V60H37.3662V38.8398H39.8413V45.1226L39.7325 47.0809H39.8685C40.0951 46.691 40.3626 46.3556 40.6708 46.0745C40.9881 45.7844 41.3326 45.5442 41.7043 45.3538C42.0761 45.1634 42.4704 45.0229 42.8875 44.9322C43.3045 44.8416 43.7306 44.7962 44.1658 44.7962C45.8249 44.7962 47.0715 45.2314 47.9055 46.1017C48.7487 46.963 49.1702 48.3456 49.1702 50.2495V60H46.6952ZM59.6687 60.272C58.6715 60.272 57.7603 60.1043 56.9353 59.7688C56.1103 59.4334 55.3986 58.9438 54.8003 58.3001C54.211 57.6564 53.7531 56.8586 53.4268 55.9067C53.1004 54.9547 52.9372 53.8668 52.9372 52.6429C52.9372 51.4099 53.0868 50.3084 53.386 49.3383C53.6851 48.3683 54.1067 47.5478 54.6507 46.8769C55.1946 46.1969 55.8429 45.6802 56.5953 45.3266C57.3569 44.973 58.1955 44.7962 59.1112 44.7962C60.0087 44.7962 60.8156 44.9594 61.5318 45.2858C62.248 45.6031 62.8555 46.0564 63.3541 46.6457C63.8527 47.2259 64.2335 47.9285 64.4964 48.7536C64.7684 49.5695 64.9044 50.4761 64.9044 51.4734V53.0101H55.4938C55.5391 54.7598 55.9063 56.0472 56.5953 56.8722C57.2934 57.6972 58.327 58.1097 59.6959 58.1097C60.1583 58.1097 60.5844 58.0871 60.9742 58.0417C61.3732 57.9964 61.7539 57.9329 62.1166 57.8513C62.4883 57.7607 62.8464 57.6519 63.1909 57.525C63.5354 57.389 63.8845 57.2394 64.238 57.0762V59.2792C63.8754 59.4515 63.5173 59.6011 63.1637 59.728C62.8192 59.8549 62.4611 59.9592 62.0894 60.0408C61.7267 60.1224 61.346 60.1813 60.947 60.2176C60.5572 60.2538 60.1311 60.272 59.6687 60.272ZM59.0568 46.8497C58.0232 46.8497 57.2028 47.2033 56.5953 47.9104C55.997 48.6176 55.6479 49.6466 55.5482 50.9974H62.239C62.239 50.3809 62.1755 49.8188 62.0486 49.3111C61.9307 48.7944 61.7403 48.3547 61.4774 47.992C61.2236 47.6294 60.8972 47.3483 60.4983 47.1489C60.0994 46.9494 59.6189 46.8497 59.0568 46.8497ZM71.1464 60H68.6713V38.8398H71.1464V60ZM78.3539 60H75.8788V38.8398H78.3539V60ZM95.2575 52.5069C95.2575 53.749 95.1034 54.855 94.7952 55.8251C94.496 56.7861 94.0608 57.5975 93.4897 58.2593C92.9276 58.9121 92.2431 59.4107 91.4362 59.7552C90.6293 60.0997 89.7227 60.272 88.7164 60.272C87.7826 60.272 86.9213 60.0997 86.1326 59.7552C85.3438 59.4107 84.6593 58.9121 84.0791 58.2593C83.5079 57.5975 83.0592 56.7861 82.7328 55.8251C82.4155 54.855 82.2568 53.749 82.2568 52.5069C82.2568 51.2739 82.4064 50.1815 82.7056 49.2295C83.0138 48.2685 83.449 47.4616 84.0111 46.8089C84.5732 46.1471 85.2577 45.6484 86.0646 45.313C86.8805 44.9685 87.7916 44.7962 88.798 44.7962C89.7318 44.7962 90.593 44.9685 91.3818 45.313C92.1705 45.6484 92.8505 46.1471 93.4217 46.8089C94.0019 47.4616 94.4507 48.2685 94.768 49.2295C95.0943 50.1815 95.2575 51.2739 95.2575 52.5069ZM84.8134 52.5069C84.8134 54.4017 85.1217 55.8296 85.7382 56.7906C86.3637 57.7426 87.3746 58.2185 88.7708 58.2185C90.1669 58.2185 91.1687 57.7426 91.7762 56.7906C92.3927 55.8296 92.7009 54.4017 92.7009 52.5069C92.7009 50.6121 92.3881 49.1978 91.7626 48.264C91.1461 47.3211 90.1397 46.8497 88.7436 46.8497C87.3474 46.8497 86.3411 47.3211 85.7246 48.264C85.1172 49.1978 84.8134 50.6121 84.8134 52.5069ZM119.437 50.0591C119.437 50.6212 119.391 51.1878 119.301 51.759C119.219 52.3211 119.092 52.8605 118.92 53.3772C118.757 53.8849 118.544 54.3609 118.281 54.8052C118.027 55.2403 117.728 55.6211 117.383 55.9475C117.039 56.2739 116.644 56.5322 116.2 56.7226C115.765 56.9039 115.284 56.9946 114.759 56.9946C114.351 56.9946 113.979 56.9266 113.643 56.7906C113.317 56.6546 113.036 56.4733 112.8 56.2467C112.565 56.02 112.37 55.7616 112.216 55.4715C112.071 55.1723 111.971 54.8641 111.916 54.5468H111.862C111.699 54.8822 111.495 55.1995 111.25 55.4987C111.005 55.7979 110.72 56.0608 110.393 56.2875C110.076 56.505 109.713 56.6773 109.305 56.8042C108.906 56.9311 108.467 56.9946 107.986 56.9946C107.288 56.9946 106.667 56.8677 106.123 56.6138C105.588 56.36 105.135 56.0064 104.763 55.5531C104.392 55.0907 104.106 54.5377 103.907 53.894C103.716 53.2503 103.621 52.5386 103.621 51.759C103.621 50.8433 103.752 50.0047 104.015 49.2431C104.287 48.4816 104.673 47.8243 105.171 47.2713C105.679 46.7182 106.291 46.2876 107.007 45.9793C107.723 45.6711 108.526 45.517 109.414 45.517C109.822 45.517 110.23 45.5351 110.638 45.5714C111.046 45.6076 111.436 45.6575 111.808 45.721C112.179 45.7844 112.519 45.857 112.828 45.9385C113.145 46.0111 113.408 46.0836 113.616 46.1561L113.304 51.8134C113.294 52.0128 113.285 52.176 113.276 52.3029C113.276 52.4208 113.276 52.516 113.276 52.5885C113.276 52.661 113.276 52.7154 113.276 52.7517C113.276 52.788 113.276 52.8197 113.276 52.8469C113.276 53.3274 113.322 53.7218 113.412 54.03C113.512 54.3382 113.639 54.583 113.793 54.7644C113.947 54.9457 114.119 55.0726 114.31 55.1451C114.509 55.2086 114.713 55.2403 114.922 55.2403C115.339 55.2403 115.706 55.1043 116.023 54.8323C116.341 54.5513 116.604 54.1751 116.812 53.7036C117.03 53.2322 117.193 52.6792 117.302 52.0445C117.41 51.4099 117.465 50.739 117.465 50.0319C117.465 48.7445 117.27 47.6022 116.88 46.6049C116.49 45.5986 115.951 44.7509 115.262 44.0619C114.573 43.3729 113.752 42.8516 112.8 42.498C111.857 42.1353 110.828 41.954 109.713 41.954C108.181 41.954 106.83 42.2079 105.661 42.7156C104.491 43.2142 103.508 43.9168 102.71 44.8234C101.921 45.721 101.323 46.7908 100.915 48.0328C100.507 49.2658 100.303 50.6166 100.303 52.0853C100.303 53.4543 100.48 54.6692 100.833 55.7299C101.196 56.7906 101.722 57.6836 102.411 58.4089C103.109 59.1342 103.97 59.6827 104.994 60.0544C106.028 60.4261 107.211 60.612 108.544 60.612C109.097 60.612 109.641 60.5802 110.176 60.5168C110.72 60.4533 111.241 60.3672 111.74 60.2584C112.247 60.1496 112.728 60.0272 113.181 59.8912C113.634 59.7462 114.056 59.5966 114.446 59.4424V61.3599C113.666 61.7044 112.787 61.9764 111.808 62.1759C110.828 62.3753 109.75 62.475 108.571 62.475C106.948 62.475 105.498 62.2438 104.219 61.7815C102.95 61.3191 101.871 60.6482 100.983 59.7688C100.103 58.8803 99.4325 57.8015 98.9701 56.5322C98.5077 55.2539 98.2765 53.8034 98.2765 52.1805C98.2765 50.4761 98.544 48.8895 99.0789 47.4208C99.6138 45.9431 100.375 44.6648 101.364 43.5859C102.361 42.507 103.562 41.6594 104.967 41.0429C106.382 40.4264 107.964 40.1181 109.713 40.1181C111.128 40.1181 112.429 40.3493 113.616 40.8117C114.804 41.265 115.828 41.9223 116.69 42.7836C117.56 43.6358 118.235 44.6784 118.716 45.9114C119.196 47.1353 119.437 48.5178 119.437 50.0591ZM105.797 51.8134C105.797 53.0191 106.023 53.894 106.477 54.438C106.939 54.9729 107.556 55.2403 108.326 55.2403C108.825 55.2403 109.251 55.1406 109.605 54.9411C109.958 54.7326 110.248 54.4425 110.475 54.0708C110.702 53.69 110.874 53.2413 110.992 52.7245C111.11 52.1987 111.187 51.623 111.223 50.9974L111.413 47.5568C111.159 47.4843 110.856 47.4208 110.502 47.3665C110.158 47.303 109.795 47.2713 109.414 47.2713C108.743 47.2713 108.177 47.4027 107.714 47.6656C107.261 47.9285 106.889 48.2731 106.599 48.6992C106.318 49.1253 106.114 49.6103 105.987 50.1543C105.86 50.6982 105.797 51.2513 105.797 51.8134ZM130.03 44.7962C130.883 44.7962 131.658 44.9594 132.356 45.2858C133.054 45.6122 133.648 46.1017 134.137 46.7545C134.636 47.3982 135.021 48.2005 135.293 49.1615C135.565 50.1225 135.701 51.2377 135.701 52.5069C135.701 53.7852 135.565 54.9094 135.293 55.8795C135.021 56.8405 134.636 57.6474 134.137 58.3001C133.648 58.9529 133.054 59.447 132.356 59.7824C131.658 60.1088 130.883 60.272 130.03 60.272C129.495 60.272 129.01 60.2131 128.575 60.0952C128.14 59.9773 127.746 59.8232 127.392 59.6328C127.048 59.4334 126.739 59.2022 126.467 58.9393C126.205 58.6764 125.969 58.3998 125.76 58.1097H125.597L125.094 60H123.285V38.8398H125.76V43.9531C125.76 44.2704 125.756 44.6104 125.747 44.973C125.738 45.3266 125.724 45.6575 125.706 45.9657C125.688 46.3284 125.67 46.682 125.651 47.0265H125.76C125.969 46.7092 126.205 46.4145 126.467 46.1425C126.73 45.8706 127.034 45.6348 127.379 45.4354C127.732 45.2359 128.127 45.0818 128.562 44.973C128.997 44.8552 129.486 44.7962 130.03 44.7962ZM129.554 46.8497C128.829 46.8497 128.222 46.9675 127.732 47.2033C127.252 47.4299 126.862 47.779 126.563 48.2504C126.273 48.7218 126.064 49.3111 125.937 50.0183C125.819 50.7254 125.76 51.555 125.76 52.5069C125.76 53.4226 125.819 54.2385 125.937 54.9547C126.064 55.6619 126.273 56.2603 126.563 56.7498C126.862 57.2303 127.256 57.5975 127.746 57.8513C128.235 58.0961 128.847 58.2185 129.582 58.2185C130.806 58.2185 131.703 57.7244 132.274 56.7362C132.854 55.748 133.145 54.3292 133.145 52.4797C133.145 50.594 132.854 49.1842 132.274 48.2504C131.703 47.3166 130.796 46.8497 129.554 46.8497ZM142.079 60H139.604V45.0682H142.079V60ZM139.414 41.0293C139.414 40.4853 139.55 40.0909 139.822 39.8462C140.103 39.6014 140.447 39.479 140.855 39.479C141.055 39.479 141.241 39.5107 141.413 39.5742C141.594 39.6286 141.748 39.7192 141.875 39.8462C142.011 39.9731 142.115 40.1363 142.188 40.3357C142.27 40.5261 142.31 40.7573 142.31 41.0293C142.31 41.5551 142.165 41.9495 141.875 42.2124C141.594 42.4662 141.254 42.5932 140.855 42.5932C140.447 42.5932 140.103 42.4662 139.822 42.2124C139.55 41.9586 139.414 41.5642 139.414 41.0293ZM155.61 60H145.561V58.3001L152.85 46.9313H146.009V45.0682H155.365V47.0537L148.24 58.1369H155.61V60ZM171.521 55.5395H168.625V60H166.231V55.5395H157.052V53.3772L166.068 40.0093H168.625V53.2821H171.521V55.5395ZM166.231 53.2821V48.4408C166.231 47.9331 166.236 47.4027 166.245 46.8497C166.263 46.2876 166.281 45.7436 166.299 45.2178C166.317 44.6829 166.335 44.1843 166.354 43.7219C166.381 43.2595 166.399 42.8742 166.408 42.566H166.286C166.222 42.7473 166.14 42.9513 166.041 43.1779C165.95 43.3955 165.846 43.6176 165.728 43.8443C165.619 44.0619 165.506 44.2749 165.388 44.4834C165.27 44.692 165.161 44.8688 165.062 45.0138L159.472 53.2821H166.231ZM186.059 48.604C186.059 49.5559 186.009 50.5078 185.909 51.4598C185.818 52.4026 185.651 53.3047 185.406 54.166C185.17 55.0273 184.844 55.8341 184.427 56.5866C184.01 57.33 183.479 57.9737 182.836 58.5177C182.192 59.0617 181.421 59.4923 180.524 59.8096C179.626 60.1179 178.575 60.272 177.369 60.272C177.197 60.272 177.006 60.2674 176.798 60.2584C176.589 60.2493 176.381 60.2312 176.172 60.204C175.964 60.1859 175.76 60.1632 175.56 60.136C175.361 60.1088 175.184 60.0725 175.03 60.0272V57.9057C175.347 58.0236 175.705 58.1097 176.104 58.1641C176.503 58.2185 176.897 58.2457 177.287 58.2457C178.511 58.2457 179.517 58.0327 180.306 57.6066C181.095 57.1805 181.721 56.6048 182.183 55.8795C182.645 55.1451 182.972 54.2929 183.162 53.3229C183.361 52.3528 183.484 51.3283 183.529 50.2495H183.352C183.171 50.5758 182.953 50.8795 182.7 51.1606C182.446 51.4416 182.147 51.6864 181.802 51.8949C181.458 52.1035 181.068 52.2667 180.633 52.3845C180.197 52.5024 179.712 52.5613 179.177 52.5613C178.316 52.5613 177.537 52.4298 176.838 52.1669C176.14 51.8949 175.547 51.5006 175.057 50.9838C174.567 50.467 174.187 49.837 173.915 49.0935C173.652 48.3411 173.52 47.4843 173.52 46.5233C173.52 45.4898 173.661 44.5605 173.942 43.7355C174.232 42.9014 174.635 42.1988 175.152 41.6276C175.678 41.0474 176.313 40.6032 177.056 40.2949C177.808 39.9867 178.647 39.8326 179.572 39.8326C180.488 39.8326 181.34 40.0093 182.128 40.3629C182.917 40.7165 183.602 41.2559 184.182 41.9812C184.762 42.7065 185.22 43.6222 185.555 44.7282C185.891 45.8252 186.059 47.1171 186.059 48.604ZM179.599 41.9268C179.055 41.9268 178.556 42.0175 178.103 42.1988C177.659 42.3801 177.274 42.6612 176.947 43.0419C176.621 43.4227 176.367 43.9032 176.186 44.4834C176.013 45.0546 175.927 45.7346 175.927 46.5233C175.927 47.1579 176 47.7291 176.145 48.2368C176.299 48.7354 176.526 49.1615 176.825 49.5151C177.124 49.8687 177.496 50.1407 177.94 50.3311C178.393 50.5214 178.919 50.6166 179.517 50.6166C180.134 50.6166 180.692 50.5124 181.19 50.3039C181.689 50.0863 182.115 49.8098 182.468 49.4743C182.822 49.1298 183.094 48.74 183.284 48.3048C183.484 47.8696 183.584 47.4344 183.584 46.9993C183.584 46.3919 183.497 45.789 183.325 45.1906C183.162 44.5832 182.913 44.0392 182.577 43.5587C182.251 43.0691 181.838 42.6748 181.34 42.3756C180.841 42.0764 180.261 41.9268 179.599 41.9268ZM201.398 48.604C201.398 49.5559 201.349 50.5078 201.249 51.4598C201.158 52.4026 200.99 53.3047 200.746 54.166C200.51 55.0273 200.184 55.8341 199.766 56.5866C199.349 57.33 198.819 57.9737 198.175 58.5177C197.532 59.0617 196.761 59.4923 195.864 59.8096C194.966 60.1179 193.914 60.272 192.709 60.272C192.536 60.272 192.346 60.2674 192.137 60.2584C191.929 60.2493 191.72 60.2312 191.512 60.204C191.303 60.1859 191.099 60.1632 190.9 60.136C190.7 60.1088 190.524 60.0725 190.37 60.0272V57.9057C190.687 58.0236 191.045 58.1097 191.444 58.1641C191.843 58.2185 192.237 58.2457 192.627 58.2457C193.851 58.2457 194.857 58.0327 195.646 57.6066C196.435 57.1805 197.06 56.6048 197.523 55.8795C197.985 55.1451 198.311 54.2929 198.502 53.3229C198.701 52.3528 198.824 51.3283 198.869 50.2495H198.692C198.511 50.5758 198.293 50.8795 198.039 51.1606C197.786 51.4416 197.486 51.6864 197.142 51.8949C196.797 52.1035 196.408 52.2667 195.972 52.3845C195.537 52.5024 195.052 52.5613 194.517 52.5613C193.656 52.5613 192.876 52.4298 192.178 52.1669C191.48 51.8949 190.886 51.5006 190.397 50.9838C189.907 50.467 189.526 49.837 189.254 49.0935C188.991 48.3411 188.86 47.4843 188.86 46.5233C188.86 45.4898 189.001 44.5605 189.282 43.7355C189.572 42.9014 189.975 42.1988 190.492 41.6276C191.018 41.0474 191.652 40.6032 192.396 40.2949C193.148 39.9867 193.987 39.8326 194.912 39.8326C195.827 39.8326 196.679 40.0093 197.468 40.3629C198.257 40.7165 198.941 41.2559 199.522 41.9812C200.102 42.7065 200.56 43.6222 200.895 44.7282C201.231 45.8252 201.398 47.1171 201.398 48.604ZM194.939 41.9268C194.395 41.9268 193.896 42.0175 193.443 42.1988C192.999 42.3801 192.613 42.6612 192.287 43.0419C191.961 43.4227 191.707 43.9032 191.525 44.4834C191.353 45.0546 191.267 45.7346 191.267 46.5233C191.267 47.1579 191.34 47.7291 191.485 48.2368C191.639 48.7354 191.865 49.1615 192.165 49.5151C192.464 49.8687 192.835 50.1407 193.28 50.3311C193.733 50.5214 194.259 50.6166 194.857 50.6166C195.474 50.6166 196.031 50.5124 196.53 50.3039C197.029 50.0863 197.455 49.8098 197.808 49.4743C198.162 49.1298 198.434 48.74 198.624 48.3048C198.824 47.8696 198.923 47.4344 198.923 46.9993C198.923 46.3919 198.837 45.789 198.665 45.1906C198.502 44.5832 198.252 44.0392 197.917 43.5587C197.591 43.0691 197.178 42.6748 196.679 42.3756C196.181 42.0764 195.601 41.9268 194.939 41.9268ZM204.757 58.4905C204.757 58.146 204.803 57.8559 204.893 57.6202C204.984 57.3754 205.106 57.1805 205.261 57.0354C205.415 56.8813 205.596 56.7725 205.804 56.709C206.013 56.6365 206.24 56.6002 206.484 56.6002C206.72 56.6002 206.942 56.6365 207.151 56.709C207.368 56.7725 207.554 56.8813 207.708 57.0354C207.862 57.1805 207.985 57.3754 208.076 57.6202C208.166 57.8559 208.212 58.146 208.212 58.4905C208.212 58.8259 208.166 59.1161 208.076 59.3608C207.985 59.5966 207.862 59.7915 207.708 59.9456C207.554 60.0997 207.368 60.2131 207.151 60.2856C206.942 60.3581 206.72 60.3944 206.484 60.3944C206.24 60.3944 206.013 60.3581 205.804 60.2856C205.596 60.2131 205.415 60.0997 205.261 59.9456C205.106 59.7915 204.984 59.5966 204.893 59.3608C204.803 59.1161 204.757 58.8259 204.757 58.4905ZM218.316 60.272C217.4 60.272 216.543 60.1315 215.745 59.8504C214.948 59.5603 214.254 59.107 213.665 58.4905C213.075 57.8649 212.613 57.0717 212.278 56.1107C211.942 55.1406 211.774 53.9756 211.774 52.6157C211.774 51.1923 211.947 49.9865 212.291 48.9983C212.636 48.0011 213.107 47.1942 213.706 46.5777C214.313 45.9521 215.02 45.4988 215.827 45.2178C216.634 44.9367 217.5 44.7962 218.424 44.7962C219.132 44.7962 219.821 44.8733 220.491 45.0274C221.171 45.1815 221.738 45.3719 222.191 45.5986L221.457 47.6928C221.249 47.6022 221.017 47.516 220.763 47.4344C220.51 47.3438 220.247 47.2667 219.975 47.2033C219.703 47.1307 219.435 47.0763 219.172 47.0401C218.909 46.9947 218.66 46.9721 218.424 46.9721C217.001 46.9721 215.963 47.4299 215.31 48.3456C214.657 49.2522 214.331 50.6665 214.331 52.5885C214.331 54.5014 214.657 55.9021 215.31 56.7906C215.972 57.67 216.974 58.1097 218.316 58.1097C219.05 58.1097 219.712 58.0281 220.301 57.8649C220.899 57.6927 221.443 57.4932 221.933 57.2666V59.4696C221.443 59.7326 220.918 59.932 220.355 60.068C219.802 60.204 219.123 60.272 218.316 60.272ZM237.667 52.5069C237.667 53.749 237.513 54.855 237.205 55.8251C236.906 56.7861 236.47 57.5975 235.899 58.2593C235.337 58.9121 234.653 59.4107 233.846 59.7552C233.039 60.0997 232.132 60.272 231.126 60.272C230.192 60.272 229.331 60.0997 228.542 59.7552C227.753 59.4107 227.069 58.9121 226.489 58.2593C225.918 57.5975 225.469 56.7861 225.142 55.8251C224.825 54.855 224.666 53.749 224.666 52.5069C224.666 51.2739 224.816 50.1815 225.115 49.2295C225.423 48.2685 225.859 47.4616 226.421 46.8089C226.983 46.1471 227.667 45.6484 228.474 45.313C229.29 44.9685 230.201 44.7962 231.208 44.7962C232.141 44.7962 233.003 44.9685 233.791 45.313C234.58 45.6484 235.26 46.1471 235.831 46.8089C236.411 47.4616 236.86 48.2685 237.178 49.2295C237.504 50.1815 237.667 51.2739 237.667 52.5069ZM227.223 52.5069C227.223 54.4017 227.531 55.8296 228.148 56.7906C228.773 57.7426 229.784 58.2185 231.18 58.2185C232.577 58.2185 233.578 57.7426 234.186 56.7906C234.802 55.8296 235.111 54.4017 235.111 52.5069C235.111 50.6121 234.798 49.1978 234.172 48.264C233.556 47.3211 232.549 46.8497 231.153 46.8497C229.757 46.8497 228.751 47.3211 228.134 48.264C227.527 49.1978 227.223 50.6121 227.223 52.5069ZM259.453 60V50.3854C259.453 49.2069 259.226 48.3229 258.773 47.7336C258.32 47.1443 257.617 46.8497 256.665 46.8497C256.003 46.8497 255.441 46.9585 254.979 47.1761C254.516 47.3846 254.136 47.6974 253.836 48.1144C253.546 48.5224 253.333 49.0346 253.197 49.6511C253.061 50.2585 252.993 50.9611 252.993 51.759V60H250.505V50.3854C250.505 49.2069 250.278 48.3229 249.825 47.7336C249.38 47.1443 248.682 46.8497 247.73 46.8497C247.032 46.8497 246.448 46.9675 245.976 47.2033C245.505 47.439 245.124 47.788 244.834 48.2504C244.553 48.7128 244.349 49.2794 244.222 49.9503C244.104 50.6212 244.045 51.3918 244.045 52.2621V60H241.57V45.0682H243.583L243.936 47.0809H244.072C244.29 46.691 244.548 46.3556 244.847 46.0745C245.147 45.7844 245.473 45.5442 245.827 45.3538C246.189 45.1634 246.57 45.0229 246.969 44.9322C247.377 44.8416 247.789 44.7962 248.206 44.7962C249.294 44.7962 250.196 44.9957 250.913 45.3946C251.638 45.7935 252.173 46.419 252.517 47.2713H252.626C252.862 46.8452 253.143 46.478 253.469 46.1697C253.805 45.8615 254.167 45.6076 254.557 45.4082C254.956 45.1997 255.373 45.0455 255.808 44.9458C256.243 44.8461 256.688 44.7962 257.141 44.7962C258.728 44.7962 259.92 45.2314 260.718 46.1017C261.524 46.963 261.928 48.3456 261.928 50.2495V60H259.453Z" fill="white"/>
</svg>
